<svg xmlns="http://www.w3.org/2000/svg" width="100%" height="100%" viewBox="0 0 1000 1000">
  <rect width="100%" height="100%" fill="#000" />
  
  <!-- Small stars -->
  <g fill="#FFF" opacity="0.5">
    <circle cx="50" cy="150" r="0.8" />
    <circle cx="120" cy="230" r="0.6" />
    <circle cx="210" cy="350" r="0.7" />
    <circle cx="340" cy="120" r="0.5" />
    <circle cx="450" cy="250" r="0.8" />
    <circle cx="570" cy="400" r="0.6" />
    <circle cx="650" cy="150" r="0.7" />
    <circle cx="730" cy="300" r="0.5" />
    <circle cx="850" cy="190" r="0.8" />
    <circle cx="950" cy="250" r="0.6" />
    <circle cx="80" cy="450" r="0.7" />
    <circle cx="180" cy="550" r="0.5" />
    <circle cx="270" cy="650" r="0.8" />
    <circle cx="380" cy="500" r="0.6" />
    <circle cx="490" cy="600" r="0.7" />
    <circle cx="550" cy="700" r="0.5" />
    <circle cx="680" cy="550" r="0.8" />
    <circle cx="780" cy="650" r="0.6" />
    <circle cx="870" cy="500" r="0.7" />
    <circle cx="940" cy="600" r="0.5" />
    <circle cx="120" cy="800" r="0.8" />
    <circle cx="220" cy="750" r="0.6" />
    <circle cx="330" cy="850" r="0.7" />
    <circle cx="410" cy="900" r="0.5" />
    <circle cx="520" cy="800" r="0.8" />
    <circle cx="650" cy="870" r="0.6" />
    <circle cx="720" cy="780" r="0.7" />
    <circle cx="830" cy="830" r="0.5" />
    <circle cx="900" cy="950" r="0.8" />
  </g>
  
  <!-- Medium stars -->
  <g fill="#FFF" opacity="0.7">
    <circle cx="100" cy="100" r="1.2" />
    <circle cx="240" cy="180" r="1.1" />
    <circle cx="380" cy="70" r="1.3" />
    <circle cx="500" cy="200" r="1.1" />
    <circle cx="620" cy="90" r="1.2" />
    <circle cx="740" cy="210" r="1.1" />
    <circle cx="880" cy="110" r="1.3" />
    <circle cx="140" cy="380" r="1.1" />
    <circle cx="260" cy="470" r="1.2" />
    <circle cx="400" cy="350" r="1.1" />
    <circle cx="530" cy="460" r="1.3" />
    <circle cx="660" cy="370" r="1.1" />
    <circle cx="800" cy="430" r="1.2" />
    <circle cx="900" cy="380" r="1.1" />
    <circle cx="190" cy="670" r="1.3" />
    <circle cx="310" cy="590" r="1.1" />
    <circle cx="440" cy="680" r="1.2" />
    <circle cx="570" cy="590" r="1.1" />
    <circle cx="700" cy="680" r="1.3" />
    <circle cx="820" cy="590" r="1.1" />
    <circle cx="150" cy="840" r="1.2" />
    <circle cx="280" cy="920" r="1.1" />
    <circle cx="420" cy="840" r="1.3" />
    <circle cx="550" cy="930" r="1.1" />
    <circle cx="670" cy="820" r="1.2" />
    <circle cx="790" cy="910" r="1.1" />
    <circle cx="920" cy="840" r="1.3" />
  </g>
  
  <!-- Large stars -->
  <g fill="#FFF" opacity="0.9">
    <circle cx="180" cy="120" r="1.8" />
    <circle cx="320" cy="230" r="1.7" />
    <circle cx="480" cy="130" r="1.9" />
    <circle cx="620" cy="250" r="1.7" />
    <circle cx="780" cy="150" r="1.8" />
    <circle cx="920" cy="260" r="1.7" />
    <circle cx="220" cy="390" r="1.9" />
    <circle cx="360" cy="510" r="1.7" />
    <circle cx="520" cy="390" r="1.8" />
    <circle cx="680" cy="510" r="1.7" />
    <circle cx="840" cy="390" r="1.9" />
    <circle cx="130" cy="640" r="1.7" />
    <circle cx="270" cy="760" r="1.8" />
    <circle cx="410" cy="640" r="1.7" />
    <circle cx="570" cy="760" r="1.9" />
    <circle cx="710" cy="640" r="1.7" />
    <circle cx="850" cy="760" r="1.8" />
    <circle cx="200" cy="880" r="1.7" />
    <circle cx="360" cy="930" r="1.9" />
    <circle cx="500" cy="880" r="1.7" />
    <circle cx="660" cy="930" r="1.8" />
    <circle cx="820" cy="880" r="1.7" />
    <circle cx="940" cy="930" r="1.9" />
  </g>
  
  <!-- Distant nebulas -->
  <g opacity="0.2">
    <ellipse cx="250" cy="200" rx="150" ry="80" fill="url(#nebula1)" />
    <ellipse cx="750" cy="600" rx="200" ry="120" fill="url(#nebula2)" />
    <ellipse cx="500" cy="800" rx="180" ry="100" fill="url(#nebula3)" />
  </g>
  
  <!-- Gradients for nebulas -->
  <defs>
    <radialGradient id="nebula1" cx="0.5" cy="0.5" r="0.5" fx="0.5" fy="0.5">
      <stop offset="0%" stop-color="#4B0082" stop-opacity="0.7" />
      <stop offset="100%" stop-color="#000" stop-opacity="0" />
    </radialGradient>
    
    <radialGradient id="nebula2" cx="0.5" cy="0.5" r="0.5" fx="0.5" fy="0.5">
      <stop offset="0%" stop-color="#0047AB" stop-opacity="0.7" />
      <stop offset="100%" stop-color="#000" stop-opacity="0" />
    </radialGradient>
    
    <radialGradient id="nebula3" cx="0.5" cy="0.5" r="0.5" fx="0.5" fy="0.5">
      <stop offset="0%" stop-color="#4682B4" stop-opacity="0.7" />
      <stop offset="100%" stop-color="#000" stop-opacity="0" />
    </radialGradient>
  </defs>
</svg>